<svg width="58" height="12" viewBox="0 0 58 12" fill="none" xmlns="http://www.w3.org/2000/svg">
<path d="M5.04616 0.818182H3.29119L0.760653 2.44389V4.13423L3.14205 2.61293H3.2017V11H5.04616V0.818182ZM7.63139 11H14.6115V9.45881H10.1768V9.3892L11.9318 7.6044C13.9105 5.70526 14.4574 4.78054 14.4574 3.6321C14.4574 1.92685 13.0703 0.678977 11.022 0.678977C9.00355 0.678977 7.57173 1.93182 7.57173 3.86577H9.3267C9.3267 2.8267 9.98295 2.17543 10.9972 2.17543C11.9666 2.17543 12.6875 2.76705 12.6875 3.72656C12.6875 4.5767 12.1705 5.18324 11.1662 6.20241L7.63139 9.66761V11ZM19.6154 9.1108H24.4727V11H26.2326V9.1108H27.5352V7.59446H26.2326V0.818182H23.9357L19.6154 7.64418V9.1108ZM24.4925 7.59446H21.5046V7.51491L24.413 2.90625H24.4925V7.59446ZM29.4964 11H31.4105L35.7358 2.39418V0.818182H28.8004V2.35938H33.8267V2.42898L29.4964 11ZM40.7546 11.1392C42.957 11.1392 44.533 9.92614 44.538 8.2706C44.533 6.99787 43.5934 5.93395 42.4102 5.73509V5.66548C43.4393 5.43679 44.1552 4.51207 44.1602 3.40838C44.1552 1.84233 42.7134 0.678977 40.7546 0.678977C38.7809 0.678977 37.3391 1.83736 37.3441 3.40838C37.3391 4.51207 38.0451 5.43679 39.0941 5.66548V5.73509C37.891 5.93395 36.9613 6.99787 36.9663 8.2706C36.9613 9.92614 38.5323 11.1392 40.7546 11.1392ZM40.7546 9.71733C39.6012 9.71733 38.8555 9.08097 38.8654 8.14134C38.8555 7.1669 39.6559 6.47585 40.7546 6.47585C41.8384 6.47585 42.6339 7.17188 42.6438 8.14134C42.6339 9.08097 41.8931 9.71733 40.7546 9.71733ZM40.7546 5.07884C39.81 5.07884 39.1339 4.46733 39.1438 3.58239C39.1339 2.70739 39.7901 2.12074 40.7546 2.12074C41.7042 2.12074 42.3555 2.70739 42.3654 3.58239C42.3555 4.4723 41.6843 5.07884 40.7546 5.07884ZM57.4256 3.14986H49.307V4.68111H52.4292V11H54.2637V4.68111H57.4256V3.14986ZM57.4256 0.818182H49.307V2.34943H57.4256V0.818182Z" fill="#111111"/>
</svg>
